<svg width="512" height="512" viewBox="0 0 512 512" fill="none" xmlns="http://www.w3.org/2000/svg">
  <!-- Skyscraper (larger, centered) -->
  <rect x="140" y="40" width="232" height="440" fill="#FF6B00" rx="12"/>
  
  <!-- Windows Grid (4 columns x 7 rows) - Large windows -->
  <!-- Row 1 -->
  <rect x="165" y="80" width="38" height="45" fill="white" rx="4"/>
  <rect x="215" y="80" width="38" height="45" fill="white" rx="4"/>
  <rect x="265" y="80" width="38" height="45" fill="white" rx="4"/>
  <rect x="315" y="80" width="38" height="45" fill="white" rx="4"/>
  
  <!-- Row 2 -->
  <rect x="165" y="140" width="38" height="45" fill="white" rx="4"/>
  <rect x="215" y="140" width="38" height="45" fill="white" rx="4"/>
  <rect x="265" y="140" width="38" height="45" fill="white" rx="4"/>
  <rect x="315" y="140" width="38" height="45" fill="white" rx="4"/>
  
  <!-- Row 3 -->
  <rect x="165" y="200" width="38" height="45" fill="white" rx="4"/>
  <rect x="215" y="200" width="38" height="45" fill="white" rx="4"/>
  <rect x="265" y="200" width="38" height="45" fill="white" rx="4"/>
  <rect x="315" y="200" width="38" height="45" fill="white" rx="4"/>
  
  <!-- Row 4 -->
  <rect x="165" y="260" width="38" height="45" fill="white" rx="4"/>
  <rect x="215" y="260" width="38" height="45" fill="white" rx="4"/>
  <rect x="265" y="260" width="38" height="45" fill="white" rx="4"/>
  <rect x="315" y="260" width="38" height="45" fill="white" rx="4"/>
  
  <!-- Row 5 -->
  <rect x="165" y="320" width="38" height="45" fill="white" rx="4"/>
  <rect x="215" y="320" width="38" height="45" fill="white" rx="4"/>
  <rect x="265" y="320" width="38" height="45" fill="white" rx="4"/>
  <rect x="315" y="320" width="38" height="45" fill="white" rx="4"/>
  
  <!-- Row 6 -->
  <rect x="165" y="380" width="38" height="45" fill="white" rx="4"/>
  <rect x="215" y="380" width="38" height="45" fill="white" rx="4"/>
  <rect x="265" y="380" width="38" height="45" fill="white" rx="4"/>
  <rect x="315" y="380" width="38" height="45" fill="white" rx="4"/>
  
  <!-- Row 7 (Bottom) -->
  <rect x="165" y="440" width="38" height="30" fill="white" rx="4"/>
  <rect x="215" y="440" width="38" height="30" fill="white" rx="4"/>
  <rect x="265" y="440" width="38" height="30" fill="white" rx="4"/>
  <rect x="315" y="440" width="38" height="30" fill="white" rx="4"/>
</svg>

